# xmcd
#
# Track frame offsets:
# 150
# 17439
# 26643
# 41394
# 64544
# 79944
# 95026
# 110112
# 127297
# 144371
# 169067
# 196757
# 210803
# 223983
# 233606
# 250418
# 263200
# 279733
# 296311
# 307832
# 329117
# 339776
#
# Disc length: 4700 seconds
#
#
# Revision: 0
# Processed by: cddbd v1.5.1PL0 Copyright (c) Steve Scherf et al.
# Submitted via: FreeRIP 2.92 
#
DISCID=41125a16
DTITLE=Bobby Womack - Check It Out
DYEAR=2004
DGENRE=Soul
TTITLE0=Across 110th Street
TTITLE1=I'm a Midnight Mover
TTITLE2=How I Miss You, Baby
TTITLE3=That's The Way I Feel About 'Cha
TTITLE4=Woman's Gotta Have It
TTITLE5=All Along The Watchtower
TTITLE6=California Dreamin'
TTITLE7=Check It Out
TTITLE8=Harry Hippie
TTITLE9=Love Has Finally Come At Last
TTITLE10=Tell Me Why
TTITLE11=Sweet Caroline
TTITLE12=Nobody Wants You When You're Down and Out
TTITLE13=Fly Me to the Moon
TTITLE14=You're Welcome, Stop On By
TTITLE15=More Than I Can Stand
TTITLE16=I Wish I Had Someone To Go Home To
TTITLE17=If You Want My Love, Put Something Down On It
TTITLE18=Lookin' For A Love
TTITLE19=Communication
TTITLE20=It's Gonna Rain
TTITLE21=It's All Over Now
EXTD=
EXTT0=
EXTT1=
EXTT2=
EXTT3=
EXTT4=
EXTT5=
EXTT6=
EXTT7=
EXTT8=
EXTT9=
EXTT10=
EXTT11=
EXTT12=
EXTT13=
EXTT14=
EXTT15=
EXTT16=
EXTT17=
EXTT18=
EXTT19=
EXTT20=
EXTT21=
PLAYORDER=
